<svg width="24" height="24" viewBox="0 0 24 24" fill="none" xmlns="http://www.w3.org/2000/svg">
<path d="M15.5856 5.96315L10.6097 0.990465L10.9592 0.641144C11.2745 0.32607 11.6652 0.171958 12.1312 0.178807C12.5973 0.185657 12.988 0.346618 13.3032 0.661692L15.9557 3.31242C16.2709 3.62749 16.4286 4.01449 16.4286 4.4734C16.4286 4.93231 16.2709 5.3193 15.9557 5.63438L15.5856 5.96315ZM5.44878 16.1346C5.1335 16.4496 4.74626 16.6072 4.28706 16.6072C3.82785 16.6072 3.44061 16.4496 3.12534 16.1346L0.472913 13.4838C0.157638 13.1687 0 12.7818 0 12.3228C0 11.8639 0.157638 11.4769 0.472913 11.1619L0.801895 10.8331L5.77776 15.8058L5.44878 16.1346ZM8.43018 15.5592C8.26569 15.7236 8.07378 15.8058 7.85446 15.8058C7.63514 15.8058 7.44323 15.7236 7.27874 15.5592L1.04863 9.33307C0.884141 9.16868 0.801895 8.9769 0.801895 8.75772C0.801895 8.53854 0.884141 8.34675 1.04863 8.18236L2.22063 6.99056C2.38512 6.82618 2.58046 6.74398 2.80663 6.74398C3.03281 6.74398 3.22814 6.82618 3.39263 6.99056L4.688 8.28511L8.1012 4.87409L6.80583 3.57955C6.64134 3.41516 6.55909 3.22338 6.55909 3.0042C6.55909 2.78501 6.64134 2.59323 6.80583 2.42884L7.97783 1.23704C8.14232 1.07266 8.33765 0.990465 8.56383 0.990465C8.79001 0.990465 8.98534 1.07266 9.14983 1.23704L15.3799 7.46317C15.5444 7.62756 15.6267 7.82277 15.6267 8.0488C15.6267 8.27483 15.5444 8.47004 15.3799 8.63443L14.1874 9.80568C14.0229 9.97007 13.831 10.0523 13.6117 10.0523C13.3923 10.0523 13.2004 9.97007 13.0359 9.80568L11.7406 8.51114L8.32737 11.9222L9.62274 13.2167C9.78723 13.3811 9.86948 13.5763 9.86948 13.8023C9.86948 14.0284 9.78723 14.2236 9.62274 14.3879L8.43018 15.5592Z" fill="#17347F"/>
</svg>
